<?xml version="1.0" encoding="UTF-8"?>
<svg width="24px" height="24px" viewBox="0 0 24 24" version="1.1" xmlns="http://www.w3.org/2000/svg" xmlns:xlink="http://www.w3.org/1999/xlink">
    <!-- Generator: Sketch 52.4 (67378) - http://www.bohemiancoding.com/sketch -->
    <title>Icons / Quick Actions /  Bill Pay</title>
    <desc>Created with Sketch.</desc>
    <defs>
        <path d="M3,2 L21,2 L21,22 L3,22 L3,2 Z M5,4 L5,20 L19,20 L19,4 L5,4 Z M7,7 L17,7 L17,9 L7,9 L7,7 Z M7,11 L11,11 L11,13 L7,13 L7,11 Z M7,15 L11,15 L11,17 L7,17 L7,15 Z M13.7400338,15.5489943 C13.7517439,15.657934 13.7815717,15.7643497 13.8283739,15.8641625 C13.8961749,15.9991002 13.997281,16.1159711 14.122841,16.2045442 C14.2568523,16.2971458 14.4078264,16.3645136 14.5678135,16.4031001 C14.7508089,16.4467265 14.9387935,16.4679054 15.1273011,16.4661337 C15.3131292,16.4702571 15.498513,16.4468723 15.676973,16.3967967 C15.8071984,16.3598112 15.9292127,16.2999763 16.0368773,16.2203026 C16.118887,16.1573007 16.1839715,16.0762309 16.226645,15.9839264 C16.2652579,15.8961786 16.2852809,15.8018835 16.2855384,15.7065784 C16.2988755,15.5568726 16.2520264,15.4079491 16.1546641,15.2905564 C16.0714679,15.2037591 15.9684004,15.1368517 15.8536533,15.0951521 C15.6176215,15.0147274 15.3773518,14.946346 15.1338448,14.8902928 C14.855737,14.8241075 14.512192,14.7390121 14.1032099,14.6350066 C13.8727949,14.5827126 13.6520939,14.4966118 13.4488385,14.3797204 C13.2870736,14.2851047 13.1441418,14.1634323 13.026769,14.0204286 C12.9245812,13.8934351 12.8480066,13.7491182 12.8010108,13.5949516 C12.757942,13.4472276 12.7359279,13.294548 12.7355737,13.1411094 C12.7286953,12.8714994 12.7964527,12.6049858 12.9318851,12.3689473 C13.0608682,12.1548008 13.2373969,11.970765 13.4488385,11.8300097 C13.668988,11.68522 13.9136881,11.5785628 14.1719189,11.5148416 C14.2914569,11.4848706 14.4127262,11.461718 14.535095,11.4455046 L14.535095,10.5 L15.4839335,10.5 L15.4839335,11.4455046 C15.6154127,11.4632835 15.7454932,11.4896075 15.8732844,11.5242966 C16.142427,11.5966111 16.3953487,11.7162899 16.6192678,11.877285 C16.8343043,12.0336282 17.0108285,12.2338025 17.1362212,12.4634978 C17.2183219,12.6248955 17.2650963,12.8008299 17.2736392,12.9803736 L16.0630521,12.9803736 C16.0161928,12.8265017 15.9156511,12.6929172 15.7784006,12.6021718 C15.5278209,12.4547612 15.2374349,12.382363 14.9440771,12.3941608 C14.8254241,12.39505 14.7071192,12.406657 14.5907165,12.4288293 C14.4765521,12.4480124 14.3661742,12.4841625 14.2635309,12.5359865 C14.1725,12.5845257 14.0941683,12.6524349 14.0345009,12.7345424 C13.8923975,12.961086 13.9245116,13.2510978 14.1130254,13.4436708 C14.2504827,13.5561384 14.4127248,13.6369744 14.5874447,13.680047 L14.8459214,13.7462323 L15.3530592,13.8754513 L15.9027312,14.0141253 L16.2888103,14.1118274 C16.4781037,14.1656845 16.6570988,14.2487018 16.8188511,14.3576586 C16.9648717,14.4566668 17.0930793,14.578036 17.1983865,14.7169503 C17.2991512,14.8487432 17.3765431,14.9957119 17.4274165,15.1518824 C17.4746373,15.3010491 17.498889,15.456081 17.4993973,15.612028 C17.5074839,15.9057573 17.434069,16.1962464 17.2867266,16.453527 C17.1480495,16.6824461 16.9566307,16.8776171 16.7272391,17.0239814 C16.4886581,17.1718303 16.225146,17.2784829 15.9485372,17.3391496 C15.7976967,17.3731117 15.6446693,17.3973285 15.4904772,17.4116383 L15.4904772,18.3571429 L14.5416387,18.3571429 L14.5416387,17.4116383 C14.3903928,17.3931018 14.2406319,17.364671 14.0933943,17.3265429 C13.8026221,17.2523871 13.5293677,17.1250582 13.2885175,16.9514928 C13.0549747,16.7787669 12.8657866,16.5566292 12.7355737,16.3022463 C12.6198136,16.0722185 12.5509502,15.8229308 12.5327186,15.5679044 C12.5,15.2527362 12.5,15.1109105 12.5,15.1109105 L13.7040433,15.1109105 L13.7400338,15.5489943 Z" id="path-1"></path>
    </defs>
    <g id="Icons-/-Quick-Actions-/--Bill-Pay" stroke="none" stroke-width="1" fill="none" fill-rule="evenodd">
        <mask id="mask-2" fill="white">
            <use xlink:href="#path-1"></use>
        </mask>
        <use id="Bill-Pay-Icon" fill="#000000" fill-rule="nonzero" xlink:href="#path-1"></use>
        <rect id="🎨-Icon-Color" fill="#2C2C2C" fill-rule="nonzero" mask="url(#mask-2)" x="0" y="0" width="24" height="24"></rect>
    </g>
</svg>