<?xml version="1.0" encoding="UTF-8"?>
<svg width="24px" height="24px" viewBox="0 0 24 24" version="1.1" xmlns="http://www.w3.org/2000/svg" xmlns:xlink="http://www.w3.org/1999/xlink">
    <!-- Generator: Sketch 52.4 (67378) - http://www.bohemiancoding.com/sketch -->
    <title>Icons / Quick Actions / Request</title>
    <desc>Created with Sketch.</desc>
    <defs>
        <path d="M11.056566,22 C10.6054733,21.999591 10.164995,21.8714391 9.79265364,21.6322797 C8.02386327,20.4968627 6.45084192,19.7646477 5.78454031,19.7646477 L2.06149416,19.6582024 C1.45851872,19.6303993 0.988348382,19.1573914 1.00021993,18.5905233 L1.00021993,14.0746601 C0.994703808,13.7966133 1.10704767,13.5279014 1.31252695,13.3276622 C1.51800623,13.1274231 1.79978142,13.0120669 2.0958396,13.0069811 L2.82396302,13.0069811 C2.90646877,13.0071998 2.98858397,12.9963378 3.06781567,12.9747249 C4.13595899,12.6811938 6.09708385,12.2134794 7.33695438,12.368309 C7.72849245,12.3876627 9.45950283,12.5747484 11.9701548,14.4907647 C12.2880444,14.7300213 12.6690565,14.8838568 13.0726436,14.9358998 L16.3835444,15.3907117 C16.7046551,15.4360512 17.0083159,15.5570067 17.2662223,15.7423039 L19.3029071,13.7875803 C20.0276691,13.0771819 21.197818,12.9741537 22.0505427,13.545659 C22.5483551,13.8792447 22.8815351,14.3875817 22.9744351,14.9552535 C23.0649182,15.5241121 22.9131443,16.1035482 22.5519861,16.5680617 L18.9354109,21.1452116 C18.6176349,21.5635654 18.1086233,21.8169307 17.5615931,21.8290423 L11.1046496,21.9967744 L11.056566,22 Z M8.05477417,15.4358703 L11.9152021,17.8454059 C11.9792643,17.8821609 12.05308,17.9011694 12.1281438,17.9002414 L16.1122154,17.6486433 C16.2034395,17.6407382 16.2875204,17.5989326 16.3457644,17.5325211 C16.4115202,17.4565822 16.4413067,17.3586714 16.4281935,17.2615693 C16.4281935,17.2615693 16.4281935,17.2357644 16.4281935,17.2196363 C16.4171798,17.1955473 16.407998,17.1707554 16.4007171,17.1454471 C16.353788,17.0463911 16.2570113,16.9761032 16.1431263,16.9583613 L12.8322254,16.5035494 C12.1463669,16.4116818 11.4996561,16.1475592 10.9603987,15.7390783 C8.70046852,14.0133734 7.2613944,13.9488611 7.24765623,13.9488611 L7.14461989,13.9488611 C6.34780559,13.8391901 4.7404388,14.1649774 3.50400281,14.5068928 C3.2809136,14.5685027 3.04962781,14.5999991 2.81709393,14.6004356 L2.61102126,14.6004356 L2.61102126,18.1002296 L5.79827848,18.1937725 C7.08623264,18.1937725 9.16413201,19.3517688 10.6753316,20.3226794 C10.7863634,20.4017703 10.9245321,20.4396658 11.0634351,20.4291247 L17.5203786,20.2613927 C17.5657865,20.2598832 17.6077833,20.2383694 17.6337185,20.2033316 L21.2468593,15.6423098 C21.342373,15.521054 21.3808488,15.3683533 21.3533301,15.219754 C21.3311326,15.0744792 21.2467819,14.944 21.1197811,14.858485 C20.9065997,14.715096 20.6134911,14.7412475 20.4328722,14.9197717 L18.0596021,17.197057 C18.0880094,17.6843599 17.9241543,18.1643973 17.5993731,18.5453647 C17.2626661,18.9414256 16.7640252,19.1861165 16.2255553,19.2195185 L12.2277456,19.467891 C11.8033628,19.4952633 11.3814257,19.3885315 11.0290896,19.1646831 L7.18239988,16.7551475 L8.05477417,15.4358703 Z M13.2211139,9.55110329 C13.2403755,9.7209286 13.2872828,9.88624311 13.3598854,10.0401734 C13.4562833,10.2421982 13.5991563,10.4171821 13.7761999,10.5500549 C13.964833,10.6880559 14.1773162,10.7881036 14.4023639,10.8448844 C14.6601902,10.911217 14.9251709,10.9438497 15.1909921,10.9420047 C15.4530309,10.9482055 15.7144439,10.9131102 15.9660816,10.8379473 C16.1497115,10.7828652 16.3218329,10.693495 16.4737821,10.574335 C16.5890208,10.4826272 16.6807839,10.3635917 16.7411711,10.2274768 C16.7962162,10.0959162 16.8249878,9.95438879 16.8257878,9.81124695 C16.8449929,9.58683956 16.7795879,9.36341777 16.6430156,9.18690217 C16.5258674,9.05756479 16.3810456,8.95783175 16.2199318,8.89554127 C15.8869365,8.7755734 15.5479987,8.67368682 15.2045307,8.59030604 C14.811909,8.49318574 14.3279011,8.3648482 13.7525072,8.20876201 C13.4270342,8.12982055 13.1153731,7.99995958 12.8284922,7.82374939 C12.6000021,7.68126493 12.3982516,7.49800729 12.2327902,7.28265058 C12.0886892,7.09219531 11.9807663,6.87570464 11.9146312,6.64443147 C11.8530607,6.41862576 11.8223064,6.18516871 11.8232451,5.95071504 C11.8135766,5.54612367 11.9093835,5.1462109 12.1007881,4.79220861 C12.2823851,4.4712335 12.5308608,4.19527933 12.8284922,3.98402898 C13.1378452,3.76867877 13.4814522,3.61022223 13.8438933,3.51577039 C14.0132263,3.47069763 14.1850175,3.43595087 14.3583632,3.41171293 L14.3583632,2 L15.6953079,2 L15.6953079,3.42211867 C15.8816127,3.44851834 16.0659416,3.48792054 16.2470092,3.54005046 C16.6223894,3.65134407 16.9746073,3.83240694 17.286103,4.07421211 C17.5891247,4.30927237 17.8376337,4.61013825 18.0138071,4.95523197 C18.1291336,5.1968003 18.1947999,5.46007445 18.2067333,5.72872579 L16.5143982,5.72872579 C16.4511325,5.4882841 16.3058215,5.27906664 16.1048531,5.13906683 C15.7511659,4.91751666 15.3411409,4.80884677 14.9269878,4.82689443 C14.7588934,4.82692975 14.5911758,4.84318825 14.4260566,4.87545458 C14.2676356,4.90573219 14.1146782,4.9607115 13.9725108,5.03847794 C13.8387732,5.1083246 13.7228559,5.20929706 13.6340437,5.33330742 C13.5464241,5.46866401 13.5026088,5.62885316 13.5088109,5.79116027 C13.4945497,6.019042 13.5801687,6.24157517 13.7423532,6.39816214 C13.939162,6.56528429 14.1707386,6.68394317 14.4192872,6.74502035 L14.7848316,6.84560923 L15.4989971,7.03984983 L16.2740866,7.24449618 L16.8190185,7.39017663 C17.0819139,7.46838108 17.3309838,7.58897837 17.5568766,7.74744059 C17.765347,7.89725751 17.948312,8.08124295 18.0984239,8.29200798 C18.2400136,8.48968129 18.3486661,8.7100295 18.4199675,8.94410142 C18.4869262,9.16896322 18.5211414,9.40271953 18.5215077,9.63781784 C18.5325736,10.0786508 18.4285801,10.5145168 18.220272,10.9003817 C18.0216483,11.2440209 17.748289,11.5360274 17.4214898,11.7536529 C17.0851236,11.9789974 16.7128176,12.1421775 16.321472,12.2357859 C16.1086377,12.2875166 15.8926648,12.3245976 15.6749999,12.3467805 L15.6749999,13.7550248 L14.3448245,13.7550248 L14.3448245,12.3329062 C14.1266905,12.3055413 13.9106784,12.2626586 13.6983525,12.2045686 C13.2875728,12.093852 12.9014536,11.903072 12.5611032,11.6426583 C12.2321396,11.3832133 11.9657874,11.0497328 11.7826291,10.6679867 C11.6189805,10.3237068 11.5213157,9.95044471 11.4949321,9.5684462 C11.4475467,9.08978187 11.4509314,8.87472978 11.4509314,8.87472978 L13.1432665,8.87472978 L13.2211139,9.55110329 Z" id="path-1"></path>
    </defs>
    <g id="Icons-/-Quick-Actions-/-Request" stroke="none" stroke-width="1" fill="none" fill-rule="evenodd">
        <mask id="mask-2" fill="white">
            <use xlink:href="#path-1"></use>
        </mask>
        <use id="Request-Money-Icon" fill="#000000" fill-rule="nonzero" xlink:href="#path-1"></use>
        <rect id="🎨-Icon-Color" fill="#2C2C2C" fill-rule="nonzero" mask="url(#mask-2)" x="0" y="0" width="24" height="24"></rect>
    </g>
</svg>