<?xml version="1.0" encoding="UTF-8"?>
<svg width="24px" height="24px" viewBox="0 0 24 24" version="1.1" xmlns="http://www.w3.org/2000/svg" xmlns:xlink="http://www.w3.org/1999/xlink">
    <!-- Generator: Sketch 52.4 (67378) - http://www.bohemiancoding.com/sketch -->
    <title>Icons / Quick Actions / Send</title>
    <desc>Created with Sketch.</desc>
    <defs>
        <path d="M5,15 L11,15 L11,17 L5,17 L5,15 Z M2,11 L9,11 L9,13 L2,13 L2,11 Z M5,7 L11,7 L11,9 L5,9 L5,7 Z M15.2691526,14.2815884 C15.2905811,14.5034293 15.3451634,14.7201302 15.4308073,14.9233855 C15.5548772,15.1981676 15.7398923,15.4361593 15.9696562,15.6165263 C16.2148851,15.8050969 16.4911544,15.9422822 16.7839167,16.0208584 C17.1187822,16.1096976 17.4627774,16.1528256 17.8077296,16.1492178 C18.1477788,16.1576145 18.4870148,16.1099946 18.8135809,16.0080225 C19.0518818,15.9327064 19.2751574,15.8108608 19.472174,15.6486161 C19.6222445,15.5203215 19.7413435,15.3552339 19.8194322,15.1672684 C19.8900904,14.9885818 19.9267308,14.7965629 19.927202,14.602487 C19.9516076,14.2976314 19.8658779,13.9943691 19.6877136,13.7553149 C19.5354719,13.5785639 19.3468673,13.4423162 19.1368902,13.3574007 C18.7049728,13.1936267 18.2653005,13.0543774 17.819704,12.9402327 C17.3107912,12.8054553 16.6821341,12.6321701 15.9337329,12.4203771 C15.5120938,12.3138875 15.1082304,12.138555 14.7362909,11.9005215 C14.4402754,11.7078496 14.1787228,11.4600804 13.9639408,11.1688728 C13.7769462,10.9102678 13.6368215,10.6163862 13.5508233,10.3024469 C13.4720112,10.0016271 13.4317274,9.69071598 13.4310791,9.37825913 C13.4184922,8.82923519 13.5424823,8.28651647 13.7903117,7.8058564 C14.0263394,7.36977613 14.3493713,6.99501226 14.7362909,6.70838347 C15.1391451,6.41353882 15.5869247,6.19634613 16.0594643,6.06658644 C16.2782084,6.00555461 16.5001206,5.95840761 16.7240446,5.9253911 L16.7240446,4 L18.4603355,4 L18.4603355,5.9253911 C18.700931,5.96159542 18.9389668,6.01520083 19.1728135,6.08584035 C19.6653208,6.23309891 20.1281451,6.47680849 20.5378974,6.80465303 C20.9313952,7.12302479 21.2544189,7.53065227 21.4838766,7.99839551 C21.6341136,8.32705987 21.7197066,8.68532634 21.7353394,9.05094264 L19.5200717,9.05094264 C19.4343232,8.73760338 19.2503408,8.46557683 18.9991844,8.2807862 C18.5406456,7.98060459 18.0092649,7.83317564 17.4724459,7.85720016 C17.2553213,7.85901086 17.0388337,7.88264692 16.8258272,7.92779783 C16.6169164,7.96686165 16.4149345,8.04047634 16.2271062,8.14600882 C16.0605277,8.2448524 15.9171876,8.38314011 15.8080015,8.55034095 C15.5479648,9.01166607 15.6067308,9.6022355 15.9516945,9.99438428 C16.2032293,10.2234091 16.500118,10.3880206 16.81984,10.475732 L17.2928296,10.6105094 L18.2208471,10.8736462 L19.2266984,11.1560369 L19.9331892,11.354994 C20.2795794,11.4646665 20.6071247,11.63372 20.9031172,11.8555957 C21.1703221,12.0572124 21.4049307,12.3043642 21.5976336,12.5872443 C21.782024,12.8556224 21.9236445,13.1549043 22.0167383,13.4729242 C22.1031482,13.7766817 22.1475268,14.0923831 22.1484569,14.4099479 C22.1632545,15.0080876 22.0289119,15.599629 21.7592882,16.1235459 C21.5055214,16.5897085 21.1552417,16.9871476 20.7354753,17.2851986 C20.2988931,17.5862725 19.8166893,17.8034561 19.3105193,17.9269956 C19.0344946,17.9961546 18.7544679,18.0454689 18.4723099,18.0746089 L18.4723099,20 L16.736019,20 L16.736019,18.0746089 C16.4592523,18.0368618 16.1852031,17.9789663 15.9157713,17.9013237 C15.3836837,17.7503155 14.8836523,17.4910275 14.4429176,17.1375852 C14.0155548,16.7858527 13.6693572,16.3334994 13.4310791,15.8154834 C13.2192484,15.347063 13.0932345,14.8394227 13.0598721,14.3200963 C13,13.6782992 13,13.3894906 13,13.3894906 L15.2032933,13.3894906 L15.2691526,14.2815884 Z" id="path-1"></path>
    </defs>
    <g id="Icons-/-Quick-Actions-/-Send" stroke="none" stroke-width="1" fill="none" fill-rule="evenodd">
        <mask id="mask-2" fill="white">
            <use xlink:href="#path-1"></use>
        </mask>
        <use id="Send-Money-Icon" fill="#000000" xlink:href="#path-1"></use>
        <rect id="🎨-Icon-Color" fill="#2C2C2C" fill-rule="nonzero" mask="url(#mask-2)" x="0" y="0" width="24" height="24"></rect>
    </g>
</svg>